<mxfile host="app.diagrams.net" modified="2022-03-30T15:52:41.632Z" agent="5.0 (X11; Linux x86_64) AppleWebKit/537.36 (KHTML, like Gecko) Chrome/98.0.4758.102 Safari/537.36" etag="P57NshZdSXMyhktGZSgo" version="17.2.4" type="github">
  <diagram id="XZpcbS82YB3ZB8pWRiQa" name="Page-1">
    <mxGraphModel dx="1422" dy="698" grid="1" gridSize="10" guides="1" tooltips="1" connect="1" arrows="1" fold="1" page="1" pageScale="1" pageWidth="850" pageHeight="1100" math="0" shadow="0">
      <root>
        <mxCell id="0" />
        <mxCell id="1" parent="0" />
        <mxCell id="Ed6KvirajqqCD9u2Csdc-1" value="&lt;font style=&quot;font-size: 20px&quot;&gt;Cursos&lt;/font&gt;" style="rounded=0;whiteSpace=wrap;html=1;" vertex="1" parent="1">
          <mxGeometry x="640" y="160" width="190" height="140" as="geometry" />
        </mxCell>
        <mxCell id="Ed6KvirajqqCD9u2Csdc-2" value="&lt;span style=&quot;font-size: 20px&quot;&gt;Disciplinas&lt;/span&gt;" style="rounded=0;whiteSpace=wrap;html=1;" vertex="1" parent="1">
          <mxGeometry x="640" y="800" width="190" height="140" as="geometry" />
        </mxCell>
        <mxCell id="Ed6KvirajqqCD9u2Csdc-3" value="&lt;span style=&quot;font-size: 20px&quot;&gt;Pessoas&lt;/span&gt;" style="rounded=0;whiteSpace=wrap;html=1;" vertex="1" parent="1">
          <mxGeometry x="20" y="160" width="190" height="140" as="geometry" />
        </mxCell>
        <mxCell id="Ed6KvirajqqCD9u2Csdc-62" style="edgeStyle=orthogonalEdgeStyle;rounded=0;orthogonalLoop=1;jettySize=auto;html=1;exitX=1;exitY=0.5;exitDx=0;exitDy=0;entryX=0;entryY=0.5;entryDx=0;entryDy=0;fontSize=15;endArrow=none;endFill=0;" edge="1" parent="1" source="Ed6KvirajqqCD9u2Csdc-4" target="Ed6KvirajqqCD9u2Csdc-61">
          <mxGeometry relative="1" as="geometry" />
        </mxCell>
        <mxCell id="Ed6KvirajqqCD9u2Csdc-134" style="edgeStyle=orthogonalEdgeStyle;rounded=0;orthogonalLoop=1;jettySize=auto;html=1;exitX=0.5;exitY=1;exitDx=0;exitDy=0;entryX=0.5;entryY=0;entryDx=0;entryDy=0;fontSize=15;fontColor=#FFFFFF;endArrow=none;endFill=0;" edge="1" parent="1" source="Ed6KvirajqqCD9u2Csdc-4" target="Ed6KvirajqqCD9u2Csdc-132">
          <mxGeometry relative="1" as="geometry" />
        </mxCell>
        <mxCell id="Ed6KvirajqqCD9u2Csdc-4" value="&lt;span style=&quot;font-size: 20px&quot;&gt;Turmas&lt;/span&gt;" style="rounded=0;whiteSpace=wrap;html=1;" vertex="1" parent="1">
          <mxGeometry x="235" y="800" width="190" height="140" as="geometry" />
        </mxCell>
        <mxCell id="Ed6KvirajqqCD9u2Csdc-6" style="edgeStyle=orthogonalEdgeStyle;rounded=0;orthogonalLoop=1;jettySize=auto;html=1;exitX=0.5;exitY=0;exitDx=0;exitDy=0;entryX=0.5;entryY=1;entryDx=0;entryDy=0;fontSize=18;endArrow=none;endFill=0;" edge="1" parent="1" source="Ed6KvirajqqCD9u2Csdc-5" target="Ed6KvirajqqCD9u2Csdc-1">
          <mxGeometry relative="1" as="geometry" />
        </mxCell>
        <mxCell id="Ed6KvirajqqCD9u2Csdc-7" style="edgeStyle=orthogonalEdgeStyle;rounded=0;orthogonalLoop=1;jettySize=auto;html=1;exitX=0.5;exitY=1;exitDx=0;exitDy=0;entryX=0.5;entryY=0;entryDx=0;entryDy=0;fontSize=18;endArrow=none;endFill=0;" edge="1" parent="1" source="Ed6KvirajqqCD9u2Csdc-5" target="Ed6KvirajqqCD9u2Csdc-2">
          <mxGeometry relative="1" as="geometry" />
        </mxCell>
        <mxCell id="Ed6KvirajqqCD9u2Csdc-5" value="&lt;font style=&quot;font-size: 18px&quot;&gt;têm&lt;/font&gt;" style="rhombus;whiteSpace=wrap;html=1;fontSize=20;" vertex="1" parent="1">
          <mxGeometry x="695" y="510" width="80" height="80" as="geometry" />
        </mxCell>
        <mxCell id="Ed6KvirajqqCD9u2Csdc-9" style="edgeStyle=orthogonalEdgeStyle;rounded=0;orthogonalLoop=1;jettySize=auto;html=1;exitX=0.5;exitY=0;exitDx=0;exitDy=0;entryX=0.211;entryY=1.014;entryDx=0;entryDy=0;entryPerimeter=0;fontSize=18;endArrow=none;endFill=0;" edge="1" parent="1" source="Ed6KvirajqqCD9u2Csdc-8" target="Ed6KvirajqqCD9u2Csdc-2">
          <mxGeometry relative="1" as="geometry" />
        </mxCell>
        <mxCell id="Ed6KvirajqqCD9u2Csdc-10" style="edgeStyle=orthogonalEdgeStyle;rounded=0;orthogonalLoop=1;jettySize=auto;html=1;exitX=1;exitY=0.5;exitDx=0;exitDy=0;entryX=0.75;entryY=1;entryDx=0;entryDy=0;fontSize=18;endArrow=none;endFill=0;" edge="1" parent="1" source="Ed6KvirajqqCD9u2Csdc-8" target="Ed6KvirajqqCD9u2Csdc-2">
          <mxGeometry relative="1" as="geometry" />
        </mxCell>
        <mxCell id="Ed6KvirajqqCD9u2Csdc-8" value="&lt;font style=&quot;font-size: 18px&quot;&gt;pré-requisitam&lt;/font&gt;" style="rhombus;whiteSpace=wrap;html=1;fontSize=20;" vertex="1" parent="1">
          <mxGeometry x="600" y="970" width="160" height="80" as="geometry" />
        </mxCell>
        <mxCell id="Ed6KvirajqqCD9u2Csdc-12" style="edgeStyle=orthogonalEdgeStyle;rounded=0;orthogonalLoop=1;jettySize=auto;html=1;exitX=1;exitY=0.5;exitDx=0;exitDy=0;entryX=0.5;entryY=1;entryDx=0;entryDy=0;fontSize=18;endArrow=none;endFill=0;" edge="1" parent="1" source="Ed6KvirajqqCD9u2Csdc-11" target="Ed6KvirajqqCD9u2Csdc-3">
          <mxGeometry relative="1" as="geometry" />
        </mxCell>
        <mxCell id="Ed6KvirajqqCD9u2Csdc-80" style="edgeStyle=orthogonalEdgeStyle;rounded=0;orthogonalLoop=1;jettySize=auto;html=1;exitX=0;exitY=0.75;exitDx=0;exitDy=0;entryX=0;entryY=0;entryDx=0;entryDy=0;fontSize=15;endArrow=none;endFill=0;" edge="1" parent="1" source="Ed6KvirajqqCD9u2Csdc-11" target="Ed6KvirajqqCD9u2Csdc-16">
          <mxGeometry relative="1" as="geometry" />
        </mxCell>
        <mxCell id="Ed6KvirajqqCD9u2Csdc-81" style="edgeStyle=orthogonalEdgeStyle;rounded=0;orthogonalLoop=1;jettySize=auto;html=1;exitX=0;exitY=0.5;exitDx=0;exitDy=0;entryX=0;entryY=0;entryDx=0;entryDy=0;fontSize=15;endArrow=none;endFill=0;" edge="1" parent="1" source="Ed6KvirajqqCD9u2Csdc-11" target="Ed6KvirajqqCD9u2Csdc-14">
          <mxGeometry relative="1" as="geometry">
            <Array as="points">
              <mxPoint x="115" y="420" />
              <mxPoint x="355" y="420" />
            </Array>
          </mxGeometry>
        </mxCell>
        <mxCell id="Ed6KvirajqqCD9u2Csdc-11" value="" style="triangle;whiteSpace=wrap;html=1;fontSize=18;rotation=-90;" vertex="1" parent="1">
          <mxGeometry x="85" y="320" width="60" height="80" as="geometry" />
        </mxCell>
        <mxCell id="Ed6KvirajqqCD9u2Csdc-82" style="edgeStyle=orthogonalEdgeStyle;rounded=0;orthogonalLoop=1;jettySize=auto;html=1;exitX=0;exitY=0;exitDx=0;exitDy=0;entryX=0;entryY=0.25;entryDx=0;entryDy=0;fontSize=15;endArrow=none;endFill=0;" edge="1" parent="1" source="Ed6KvirajqqCD9u2Csdc-13" target="Ed6KvirajqqCD9u2Csdc-11">
          <mxGeometry relative="1" as="geometry">
            <Array as="points">
              <mxPoint x="255" y="430" />
              <mxPoint x="95" y="430" />
            </Array>
          </mxGeometry>
        </mxCell>
        <mxCell id="Ed6KvirajqqCD9u2Csdc-83" style="edgeStyle=orthogonalEdgeStyle;rounded=0;orthogonalLoop=1;jettySize=auto;html=1;exitX=0.5;exitY=0;exitDx=0;exitDy=0;entryX=0.5;entryY=0;entryDx=0;entryDy=0;fontSize=15;endArrow=none;endFill=0;" edge="1" parent="1" source="Ed6KvirajqqCD9u2Csdc-13" target="Ed6KvirajqqCD9u2Csdc-37">
          <mxGeometry relative="1" as="geometry" />
        </mxCell>
        <mxCell id="Ed6KvirajqqCD9u2Csdc-13" value="Alunos" style="rounded=0;whiteSpace=wrap;html=1;fontSize=18;" vertex="1" parent="1">
          <mxGeometry x="230" y="450" width="90" height="30" as="geometry" />
        </mxCell>
        <mxCell id="Ed6KvirajqqCD9u2Csdc-66" style="edgeStyle=orthogonalEdgeStyle;rounded=0;orthogonalLoop=1;jettySize=auto;html=1;exitX=0.25;exitY=1;exitDx=0;exitDy=0;entryX=0.5;entryY=0;entryDx=0;entryDy=0;fontSize=15;endArrow=none;endFill=0;" edge="1" parent="1" source="Ed6KvirajqqCD9u2Csdc-14" target="Ed6KvirajqqCD9u2Csdc-65">
          <mxGeometry relative="1" as="geometry" />
        </mxCell>
        <mxCell id="Ed6KvirajqqCD9u2Csdc-84" style="edgeStyle=orthogonalEdgeStyle;rounded=0;orthogonalLoop=1;jettySize=auto;html=1;exitX=0.5;exitY=0;exitDx=0;exitDy=0;entryX=0;entryY=0;entryDx=0;entryDy=0;fontSize=15;endArrow=none;endFill=0;" edge="1" parent="1" source="Ed6KvirajqqCD9u2Csdc-14" target="Ed6KvirajqqCD9u2Csdc-37">
          <mxGeometry relative="1" as="geometry">
            <Array as="points">
              <mxPoint x="405" y="390" />
              <mxPoint x="310" y="390" />
              <mxPoint x="310" y="180" />
              <mxPoint x="500" y="180" />
            </Array>
          </mxGeometry>
        </mxCell>
        <mxCell id="Ed6KvirajqqCD9u2Csdc-14" value="Professores" style="rounded=0;whiteSpace=wrap;html=1;fontSize=18;" vertex="1" parent="1">
          <mxGeometry x="355" y="440" width="100" height="40" as="geometry" />
        </mxCell>
        <mxCell id="Ed6KvirajqqCD9u2Csdc-79" style="edgeStyle=orthogonalEdgeStyle;rounded=0;orthogonalLoop=1;jettySize=auto;html=1;exitX=1;exitY=0.5;exitDx=0;exitDy=0;entryX=1;entryY=0.5;entryDx=0;entryDy=0;fontSize=15;endArrow=none;endFill=0;" edge="1" parent="1" source="Ed6KvirajqqCD9u2Csdc-16" target="Ed6KvirajqqCD9u2Csdc-68">
          <mxGeometry relative="1" as="geometry">
            <Array as="points">
              <mxPoint x="640" y="460" />
              <mxPoint x="640" y="690" />
            </Array>
          </mxGeometry>
        </mxCell>
        <mxCell id="Ed6KvirajqqCD9u2Csdc-85" style="edgeStyle=orthogonalEdgeStyle;rounded=0;orthogonalLoop=1;jettySize=auto;html=1;exitX=0.5;exitY=0;exitDx=0;exitDy=0;entryX=0;entryY=0.5;entryDx=0;entryDy=0;fontSize=15;endArrow=none;endFill=0;" edge="1" parent="1" source="Ed6KvirajqqCD9u2Csdc-16" target="Ed6KvirajqqCD9u2Csdc-37">
          <mxGeometry relative="1" as="geometry">
            <Array as="points">
              <mxPoint x="520" y="380" />
              <mxPoint x="320" y="380" />
              <mxPoint x="320" y="230" />
            </Array>
          </mxGeometry>
        </mxCell>
        <mxCell id="Ed6KvirajqqCD9u2Csdc-131" style="edgeStyle=orthogonalEdgeStyle;rounded=0;orthogonalLoop=1;jettySize=auto;html=1;exitX=0.5;exitY=1;exitDx=0;exitDy=0;entryX=0.5;entryY=0;entryDx=0;entryDy=0;fontSize=15;fontColor=#FFFFFF;endArrow=none;endFill=0;" edge="1" parent="1" source="Ed6KvirajqqCD9u2Csdc-16" target="Ed6KvirajqqCD9u2Csdc-129">
          <mxGeometry relative="1" as="geometry" />
        </mxCell>
        <mxCell id="Ed6KvirajqqCD9u2Csdc-16" value="Funcionários" style="rounded=0;whiteSpace=wrap;html=1;fontSize=18;" vertex="1" parent="1">
          <mxGeometry x="465" y="440" width="110" height="40" as="geometry" />
        </mxCell>
        <mxCell id="Ed6KvirajqqCD9u2Csdc-51" style="edgeStyle=orthogonalEdgeStyle;rounded=0;orthogonalLoop=1;jettySize=auto;html=1;exitX=1;exitY=0.5;exitDx=0;exitDy=0;entryX=0;entryY=0.5;entryDx=0;entryDy=0;fontSize=15;endArrow=none;endFill=0;" edge="1" parent="1" source="Ed6KvirajqqCD9u2Csdc-37" target="Ed6KvirajqqCD9u2Csdc-1">
          <mxGeometry relative="1" as="geometry" />
        </mxCell>
        <mxCell id="Ed6KvirajqqCD9u2Csdc-37" value="Inscrição" style="rhombus;whiteSpace=wrap;html=1;fontSize=18;" vertex="1" parent="1">
          <mxGeometry x="475" y="190" width="100" height="80" as="geometry" />
        </mxCell>
        <mxCell id="Ed6KvirajqqCD9u2Csdc-48" style="edgeStyle=orthogonalEdgeStyle;rounded=0;orthogonalLoop=1;jettySize=auto;html=1;exitX=0.5;exitY=0;exitDx=0;exitDy=0;entryX=0;entryY=1;entryDx=0;entryDy=0;fontSize=15;endArrow=none;endFill=0;" edge="1" parent="1" source="Ed6KvirajqqCD9u2Csdc-39" target="Ed6KvirajqqCD9u2Csdc-37">
          <mxGeometry relative="1" as="geometry" />
        </mxCell>
        <mxCell id="Ed6KvirajqqCD9u2Csdc-39" value="" style="ellipse;whiteSpace=wrap;html=1;aspect=fixed;fontSize=18;direction=east;flipH=0;flipV=1;" vertex="1" parent="1">
          <mxGeometry x="475" y="300" width="30" height="30" as="geometry" />
        </mxCell>
        <mxCell id="Ed6KvirajqqCD9u2Csdc-40" value="&lt;font style=&quot;font-size: 15px&quot;&gt;Status&lt;/font&gt;" style="text;html=1;strokeColor=none;fillColor=none;align=center;verticalAlign=middle;whiteSpace=wrap;rounded=0;fontSize=18;direction=east;flipH=0;flipV=1;" vertex="1" parent="1">
          <mxGeometry x="465" y="340" width="50" height="25" as="geometry" />
        </mxCell>
        <mxCell id="Ed6KvirajqqCD9u2Csdc-49" style="edgeStyle=orthogonalEdgeStyle;rounded=0;orthogonalLoop=1;jettySize=auto;html=1;exitX=0.5;exitY=0;exitDx=0;exitDy=0;entryX=0.5;entryY=1;entryDx=0;entryDy=0;fontSize=15;endArrow=none;endFill=0;" edge="1" parent="1" source="Ed6KvirajqqCD9u2Csdc-42" target="Ed6KvirajqqCD9u2Csdc-37">
          <mxGeometry relative="1" as="geometry" />
        </mxCell>
        <mxCell id="Ed6KvirajqqCD9u2Csdc-42" value="" style="ellipse;whiteSpace=wrap;html=1;aspect=fixed;fontSize=18;direction=east;flipH=0;flipV=1;" vertex="1" parent="1">
          <mxGeometry x="545" y="300" width="30" height="30" as="geometry" />
        </mxCell>
        <mxCell id="Ed6KvirajqqCD9u2Csdc-43" value="&lt;font style=&quot;font-size: 15px&quot;&gt;Ano_inicio&lt;/font&gt;" style="text;html=1;strokeColor=none;fillColor=none;align=center;verticalAlign=middle;whiteSpace=wrap;rounded=0;fontSize=18;direction=east;flipH=0;flipV=1;" vertex="1" parent="1">
          <mxGeometry x="535" y="340" width="50" height="25" as="geometry" />
        </mxCell>
        <mxCell id="Ed6KvirajqqCD9u2Csdc-50" style="edgeStyle=orthogonalEdgeStyle;rounded=0;orthogonalLoop=1;jettySize=auto;html=1;exitX=0.5;exitY=0;exitDx=0;exitDy=0;entryX=1;entryY=1;entryDx=0;entryDy=0;fontSize=15;endArrow=none;endFill=0;" edge="1" parent="1" source="Ed6KvirajqqCD9u2Csdc-45" target="Ed6KvirajqqCD9u2Csdc-37">
          <mxGeometry relative="1" as="geometry">
            <Array as="points">
              <mxPoint x="625" y="270" />
              <mxPoint x="550" y="270" />
            </Array>
          </mxGeometry>
        </mxCell>
        <mxCell id="Ed6KvirajqqCD9u2Csdc-45" value="" style="ellipse;whiteSpace=wrap;html=1;aspect=fixed;fontSize=18;direction=east;flipH=0;flipV=1;" vertex="1" parent="1">
          <mxGeometry x="610" y="310" width="30" height="30" as="geometry" />
        </mxCell>
        <mxCell id="Ed6KvirajqqCD9u2Csdc-46" value="&lt;span style=&quot;font-size: 15px&quot;&gt;Ano_fim&lt;/span&gt;" style="text;html=1;strokeColor=none;fillColor=none;align=center;verticalAlign=middle;whiteSpace=wrap;rounded=0;fontSize=18;direction=east;flipH=0;flipV=1;" vertex="1" parent="1">
          <mxGeometry x="610" y="340" width="50" height="25" as="geometry" />
        </mxCell>
        <mxCell id="Ed6KvirajqqCD9u2Csdc-74" style="edgeStyle=orthogonalEdgeStyle;rounded=0;orthogonalLoop=1;jettySize=auto;html=1;exitX=0.5;exitY=1;exitDx=0;exitDy=0;entryX=0.25;entryY=0;entryDx=0;entryDy=0;fontSize=15;endArrow=none;endFill=0;" edge="1" parent="1" source="Ed6KvirajqqCD9u2Csdc-59" target="Ed6KvirajqqCD9u2Csdc-4">
          <mxGeometry relative="1" as="geometry" />
        </mxCell>
        <mxCell id="Ed6KvirajqqCD9u2Csdc-59" value="&lt;span style=&quot;font-size: 18px&quot;&gt;matricula&lt;/span&gt;" style="rhombus;whiteSpace=wrap;html=1;fontSize=20;" vertex="1" parent="1">
          <mxGeometry x="210" y="670" width="95" height="80" as="geometry" />
        </mxCell>
        <mxCell id="Ed6KvirajqqCD9u2Csdc-63" style="edgeStyle=orthogonalEdgeStyle;rounded=0;orthogonalLoop=1;jettySize=auto;html=1;exitX=1;exitY=0.5;exitDx=0;exitDy=0;entryX=0;entryY=0.5;entryDx=0;entryDy=0;fontSize=15;endArrow=none;endFill=0;" edge="1" parent="1" source="Ed6KvirajqqCD9u2Csdc-61" target="Ed6KvirajqqCD9u2Csdc-2">
          <mxGeometry relative="1" as="geometry" />
        </mxCell>
        <mxCell id="Ed6KvirajqqCD9u2Csdc-61" value="&lt;font style=&quot;font-size: 18px&quot;&gt;têm&lt;/font&gt;" style="rhombus;whiteSpace=wrap;html=1;fontSize=20;" vertex="1" parent="1">
          <mxGeometry x="495" y="830" width="80" height="80" as="geometry" />
        </mxCell>
        <mxCell id="Ed6KvirajqqCD9u2Csdc-75" style="edgeStyle=orthogonalEdgeStyle;rounded=0;orthogonalLoop=1;jettySize=auto;html=1;exitX=0.5;exitY=1;exitDx=0;exitDy=0;entryX=0.75;entryY=0;entryDx=0;entryDy=0;fontSize=15;endArrow=none;endFill=0;" edge="1" parent="1" source="Ed6KvirajqqCD9u2Csdc-65" target="Ed6KvirajqqCD9u2Csdc-4">
          <mxGeometry relative="1" as="geometry" />
        </mxCell>
        <mxCell id="Ed6KvirajqqCD9u2Csdc-65" value="&lt;span style=&quot;font-size: 18px&quot;&gt;ministram&lt;/span&gt;" style="rhombus;whiteSpace=wrap;html=1;fontSize=20;" vertex="1" parent="1">
          <mxGeometry x="355" y="670" width="100" height="80" as="geometry" />
        </mxCell>
        <mxCell id="Ed6KvirajqqCD9u2Csdc-78" style="edgeStyle=orthogonalEdgeStyle;rounded=0;orthogonalLoop=1;jettySize=auto;html=1;exitX=0;exitY=0;exitDx=0;exitDy=0;entryX=0.75;entryY=1;entryDx=0;entryDy=0;fontSize=15;endArrow=none;endFill=0;" edge="1" parent="1" source="Ed6KvirajqqCD9u2Csdc-68" target="Ed6KvirajqqCD9u2Csdc-14">
          <mxGeometry relative="1" as="geometry">
            <Array as="points">
              <mxPoint x="440" y="690" />
              <mxPoint x="440" y="480" />
            </Array>
          </mxGeometry>
        </mxCell>
        <mxCell id="Ed6KvirajqqCD9u2Csdc-68" value="&lt;span style=&quot;font-size: 18px&quot;&gt;auxiliam&lt;/span&gt;" style="rhombus;whiteSpace=wrap;html=1;fontSize=20;" vertex="1" parent="1">
          <mxGeometry x="490" y="650" width="95" height="80" as="geometry" />
        </mxCell>
        <mxCell id="Ed6KvirajqqCD9u2Csdc-97" style="edgeStyle=orthogonalEdgeStyle;rounded=0;orthogonalLoop=1;jettySize=auto;html=1;exitX=0.5;exitY=1;exitDx=0;exitDy=0;entryX=0.5;entryY=0;entryDx=0;entryDy=0;fontSize=15;endArrow=none;endFill=0;" edge="1" parent="1" source="Ed6KvirajqqCD9u2Csdc-86" target="Ed6KvirajqqCD9u2Csdc-94">
          <mxGeometry relative="1" as="geometry" />
        </mxCell>
        <mxCell id="Ed6KvirajqqCD9u2Csdc-86" value="Notas" style="rounded=0;whiteSpace=wrap;html=1;fontSize=18;" vertex="1" parent="1">
          <mxGeometry x="10" y="452.5" width="90" height="30" as="geometry" />
        </mxCell>
        <mxCell id="Ed6KvirajqqCD9u2Csdc-89" style="edgeStyle=orthogonalEdgeStyle;rounded=0;orthogonalLoop=1;jettySize=auto;html=1;exitX=1;exitY=0.5;exitDx=0;exitDy=0;entryX=0;entryY=0.5;entryDx=0;entryDy=0;fontSize=15;endArrow=none;endFill=0;" edge="1" parent="1" source="Ed6KvirajqqCD9u2Csdc-88" target="Ed6KvirajqqCD9u2Csdc-13">
          <mxGeometry relative="1" as="geometry" />
        </mxCell>
        <mxCell id="Ed6KvirajqqCD9u2Csdc-90" style="edgeStyle=orthogonalEdgeStyle;rounded=0;orthogonalLoop=1;jettySize=auto;html=1;exitX=0;exitY=0.5;exitDx=0;exitDy=0;entryX=1;entryY=0.5;entryDx=0;entryDy=0;fontSize=15;endArrow=none;endFill=0;" edge="1" parent="1" source="Ed6KvirajqqCD9u2Csdc-88" target="Ed6KvirajqqCD9u2Csdc-86">
          <mxGeometry relative="1" as="geometry" />
        </mxCell>
        <mxCell id="Ed6KvirajqqCD9u2Csdc-88" value="&lt;font style=&quot;font-size: 18px&quot;&gt;têm&lt;/font&gt;" style="rhombus;whiteSpace=wrap;html=1;fontSize=20;" vertex="1" parent="1">
          <mxGeometry x="130" y="445" width="70" height="45" as="geometry" />
        </mxCell>
        <mxCell id="Ed6KvirajqqCD9u2Csdc-93" style="edgeStyle=orthogonalEdgeStyle;rounded=0;orthogonalLoop=1;jettySize=auto;html=1;exitX=0.5;exitY=1;exitDx=0;exitDy=0;entryX=0.5;entryY=0;entryDx=0;entryDy=0;fontSize=15;endArrow=none;endFill=0;" edge="1" parent="1" source="Ed6KvirajqqCD9u2Csdc-91" target="Ed6KvirajqqCD9u2Csdc-59">
          <mxGeometry relative="1" as="geometry" />
        </mxCell>
        <mxCell id="Ed6KvirajqqCD9u2Csdc-91" value="" style="rounded=0;whiteSpace=wrap;html=1;fontSize=15;fillColor=none;dashed=1;" vertex="1" parent="1">
          <mxGeometry y="440" width="330" height="120" as="geometry" />
        </mxCell>
        <mxCell id="Ed6KvirajqqCD9u2Csdc-94" value="" style="ellipse;whiteSpace=wrap;html=1;aspect=fixed;fontSize=18;direction=east;flipH=0;flipV=1;" vertex="1" parent="1">
          <mxGeometry x="40" y="500" width="30" height="30" as="geometry" />
        </mxCell>
        <mxCell id="Ed6KvirajqqCD9u2Csdc-95" value="&lt;font style=&quot;font-size: 15px&quot;&gt;Pontuação&lt;/font&gt;" style="text;html=1;strokeColor=none;fillColor=none;align=center;verticalAlign=middle;whiteSpace=wrap;rounded=0;fontSize=18;direction=east;flipH=0;flipV=1;" vertex="1" parent="1">
          <mxGeometry x="20" y="530" width="70" height="25" as="geometry" />
        </mxCell>
        <mxCell id="Ed6KvirajqqCD9u2Csdc-100" style="edgeStyle=orthogonalEdgeStyle;rounded=0;orthogonalLoop=1;jettySize=auto;html=1;exitX=0.5;exitY=0;exitDx=0;exitDy=0;entryX=0.5;entryY=1;entryDx=0;entryDy=0;fontSize=15;endArrow=none;endFill=0;" edge="1" parent="1" source="Ed6KvirajqqCD9u2Csdc-98" target="Ed6KvirajqqCD9u2Csdc-13">
          <mxGeometry relative="1" as="geometry" />
        </mxCell>
        <mxCell id="Ed6KvirajqqCD9u2Csdc-98" value="" style="ellipse;whiteSpace=wrap;html=1;aspect=fixed;fontSize=18;direction=east;flipH=0;flipV=1;fillColor=#000000;" vertex="1" parent="1">
          <mxGeometry x="260" y="495" width="30" height="30" as="geometry" />
        </mxCell>
        <mxCell id="Ed6KvirajqqCD9u2Csdc-99" value="&lt;font style=&quot;font-size: 15px&quot;&gt;RA&lt;/font&gt;" style="text;html=1;strokeColor=none;fillColor=none;align=center;verticalAlign=middle;whiteSpace=wrap;rounded=0;fontSize=18;direction=east;flipH=0;flipV=1;" vertex="1" parent="1">
          <mxGeometry x="260" y="525" width="30" height="25" as="geometry" />
        </mxCell>
        <mxCell id="Ed6KvirajqqCD9u2Csdc-103" style="edgeStyle=orthogonalEdgeStyle;rounded=0;orthogonalLoop=1;jettySize=auto;html=1;exitX=0.5;exitY=1;exitDx=0;exitDy=0;entryX=0.5;entryY=0;entryDx=0;entryDy=0;fontSize=15;endArrow=none;endFill=0;" edge="1" parent="1" source="Ed6KvirajqqCD9u2Csdc-101" target="Ed6KvirajqqCD9u2Csdc-1">
          <mxGeometry relative="1" as="geometry" />
        </mxCell>
        <mxCell id="Ed6KvirajqqCD9u2Csdc-101" value="" style="ellipse;whiteSpace=wrap;html=1;aspect=fixed;fontSize=18;direction=east;flipH=0;flipV=1;labelBackgroundColor=#000000;fillColor=#000000;" vertex="1" parent="1">
          <mxGeometry x="720" y="110" width="30" height="30" as="geometry" />
        </mxCell>
        <mxCell id="Ed6KvirajqqCD9u2Csdc-102" value="&lt;font style=&quot;font-size: 15px&quot;&gt;Nome&lt;/font&gt;" style="text;html=1;strokeColor=none;fillColor=none;align=center;verticalAlign=middle;whiteSpace=wrap;rounded=0;fontSize=18;direction=east;flipH=0;flipV=1;" vertex="1" parent="1">
          <mxGeometry x="712.5" y="80" width="45" height="25" as="geometry" />
        </mxCell>
        <mxCell id="Ed6KvirajqqCD9u2Csdc-109" style="edgeStyle=orthogonalEdgeStyle;rounded=0;orthogonalLoop=1;jettySize=auto;html=1;exitX=0.5;exitY=1;exitDx=0;exitDy=0;entryX=0.837;entryY=-0.007;entryDx=0;entryDy=0;entryPerimeter=0;fontSize=15;endArrow=none;endFill=0;" edge="1" parent="1" source="Ed6KvirajqqCD9u2Csdc-104" target="Ed6KvirajqqCD9u2Csdc-2">
          <mxGeometry relative="1" as="geometry" />
        </mxCell>
        <mxCell id="Ed6KvirajqqCD9u2Csdc-104" value="" style="ellipse;whiteSpace=wrap;html=1;aspect=fixed;fontSize=18;direction=east;flipH=0;flipV=1;labelBackgroundColor=#000000;fontColor=#FFFFFF;fillColor=#000000;" vertex="1" parent="1">
          <mxGeometry x="782.5" y="750" width="30" height="30" as="geometry" />
        </mxCell>
        <mxCell id="Ed6KvirajqqCD9u2Csdc-105" value="&lt;font style=&quot;font-size: 15px&quot;&gt;ID&lt;/font&gt;" style="text;html=1;strokeColor=none;fillColor=none;align=center;verticalAlign=middle;whiteSpace=wrap;rounded=0;fontSize=18;direction=east;flipH=0;flipV=1;" vertex="1" parent="1">
          <mxGeometry x="775" y="720" width="45" height="25" as="geometry" />
        </mxCell>
        <mxCell id="Ed6KvirajqqCD9u2Csdc-111" value="" style="rounded=0;whiteSpace=wrap;html=1;labelBackgroundColor=none;fontSize=15;fontColor=#FFFFFF;fillColor=none;" vertex="1" parent="1">
          <mxGeometry x="12.5" y="456.88" width="85" height="21.25" as="geometry" />
        </mxCell>
        <mxCell id="Ed6KvirajqqCD9u2Csdc-122" style="edgeStyle=orthogonalEdgeStyle;rounded=0;orthogonalLoop=1;jettySize=auto;html=1;exitX=0.5;exitY=1;exitDx=0;exitDy=0;entryX=0;entryY=0;entryDx=0;entryDy=0;fontSize=15;fontColor=#FFFFFF;endArrow=none;endFill=0;" edge="1" parent="1" source="Ed6KvirajqqCD9u2Csdc-112" target="Ed6KvirajqqCD9u2Csdc-3">
          <mxGeometry relative="1" as="geometry" />
        </mxCell>
        <mxCell id="Ed6KvirajqqCD9u2Csdc-112" value="" style="ellipse;whiteSpace=wrap;html=1;aspect=fixed;fontSize=18;direction=east;flipH=0;flipV=1;labelBackgroundColor=#000000;fillColor=#000000;" vertex="1" parent="1">
          <mxGeometry x="7.5" y="110" width="30" height="30" as="geometry" />
        </mxCell>
        <mxCell id="Ed6KvirajqqCD9u2Csdc-113" value="&lt;font style=&quot;font-size: 15px&quot;&gt;CPF&lt;/font&gt;" style="text;html=1;strokeColor=none;fillColor=none;align=center;verticalAlign=middle;whiteSpace=wrap;rounded=0;fontSize=18;direction=east;flipH=0;flipV=1;" vertex="1" parent="1">
          <mxGeometry y="80" width="45" height="25" as="geometry" />
        </mxCell>
        <mxCell id="Ed6KvirajqqCD9u2Csdc-123" style="edgeStyle=orthogonalEdgeStyle;rounded=0;orthogonalLoop=1;jettySize=auto;html=1;exitX=0.5;exitY=1;exitDx=0;exitDy=0;entryX=0.3;entryY=-0.007;entryDx=0;entryDy=0;entryPerimeter=0;fontSize=15;fontColor=#FFFFFF;endArrow=none;endFill=0;" edge="1" parent="1" source="Ed6KvirajqqCD9u2Csdc-116" target="Ed6KvirajqqCD9u2Csdc-3">
          <mxGeometry relative="1" as="geometry" />
        </mxCell>
        <mxCell id="Ed6KvirajqqCD9u2Csdc-116" value="" style="ellipse;whiteSpace=wrap;html=1;aspect=fixed;fontSize=18;direction=east;flipH=0;flipV=1;" vertex="1" parent="1">
          <mxGeometry x="60" y="110" width="30" height="30" as="geometry" />
        </mxCell>
        <mxCell id="Ed6KvirajqqCD9u2Csdc-117" value="&lt;font style=&quot;font-size: 15px&quot;&gt;Nome&lt;/font&gt;" style="text;html=1;strokeColor=none;fillColor=none;align=center;verticalAlign=middle;whiteSpace=wrap;rounded=0;fontSize=18;direction=east;flipH=0;flipV=1;" vertex="1" parent="1">
          <mxGeometry x="50" y="80" width="50" height="25" as="geometry" />
        </mxCell>
        <mxCell id="Ed6KvirajqqCD9u2Csdc-124" style="edgeStyle=orthogonalEdgeStyle;rounded=0;orthogonalLoop=1;jettySize=auto;html=1;exitX=0.5;exitY=1;exitDx=0;exitDy=0;entryX=0.563;entryY=-0.007;entryDx=0;entryDy=0;entryPerimeter=0;fontSize=15;fontColor=#FFFFFF;endArrow=none;endFill=0;" edge="1" parent="1" source="Ed6KvirajqqCD9u2Csdc-118" target="Ed6KvirajqqCD9u2Csdc-3">
          <mxGeometry relative="1" as="geometry" />
        </mxCell>
        <mxCell id="Ed6KvirajqqCD9u2Csdc-118" value="" style="ellipse;whiteSpace=wrap;html=1;aspect=fixed;fontSize=18;direction=east;flipH=0;flipV=1;" vertex="1" parent="1">
          <mxGeometry x="115" y="110" width="30" height="30" as="geometry" />
        </mxCell>
        <mxCell id="Ed6KvirajqqCD9u2Csdc-119" value="&lt;font style=&quot;font-size: 15px&quot;&gt;Telefone&lt;/font&gt;" style="text;html=1;strokeColor=none;fillColor=none;align=center;verticalAlign=middle;whiteSpace=wrap;rounded=0;fontSize=18;direction=east;flipH=0;flipV=1;" vertex="1" parent="1">
          <mxGeometry x="105" y="80" width="55" height="25" as="geometry" />
        </mxCell>
        <mxCell id="Ed6KvirajqqCD9u2Csdc-125" style="edgeStyle=orthogonalEdgeStyle;rounded=0;orthogonalLoop=1;jettySize=auto;html=1;exitX=0.5;exitY=1;exitDx=0;exitDy=0;entryX=0.863;entryY=-0.007;entryDx=0;entryDy=0;entryPerimeter=0;fontSize=15;fontColor=#FFFFFF;endArrow=none;endFill=0;" edge="1" parent="1" source="Ed6KvirajqqCD9u2Csdc-120" target="Ed6KvirajqqCD9u2Csdc-3">
          <mxGeometry relative="1" as="geometry" />
        </mxCell>
        <mxCell id="Ed6KvirajqqCD9u2Csdc-120" value="" style="ellipse;whiteSpace=wrap;html=1;aspect=fixed;fontSize=18;direction=east;flipH=0;flipV=1;" vertex="1" parent="1">
          <mxGeometry x="170" y="110" width="30" height="30" as="geometry" />
        </mxCell>
        <mxCell id="Ed6KvirajqqCD9u2Csdc-121" value="&lt;span style=&quot;font-size: 15px&quot;&gt;Endereço&lt;/span&gt;" style="text;html=1;strokeColor=none;fillColor=none;align=center;verticalAlign=middle;whiteSpace=wrap;rounded=0;fontSize=18;direction=east;flipH=0;flipV=1;" vertex="1" parent="1">
          <mxGeometry x="165" y="80" width="70" height="25" as="geometry" />
        </mxCell>
        <mxCell id="Ed6KvirajqqCD9u2Csdc-128" style="edgeStyle=orthogonalEdgeStyle;rounded=0;orthogonalLoop=1;jettySize=auto;html=1;exitX=0.5;exitY=0;exitDx=0;exitDy=0;entryX=0.5;entryY=1;entryDx=0;entryDy=0;fontSize=15;fontColor=#FFFFFF;endArrow=none;endFill=0;" edge="1" parent="1" source="Ed6KvirajqqCD9u2Csdc-126" target="Ed6KvirajqqCD9u2Csdc-14">
          <mxGeometry relative="1" as="geometry" />
        </mxCell>
        <mxCell id="Ed6KvirajqqCD9u2Csdc-126" value="" style="ellipse;whiteSpace=wrap;html=1;aspect=fixed;fontSize=18;direction=east;flipH=0;flipV=1;fillColor=#000000;" vertex="1" parent="1">
          <mxGeometry x="390" y="495" width="30" height="30" as="geometry" />
        </mxCell>
        <mxCell id="Ed6KvirajqqCD9u2Csdc-127" value="&lt;font style=&quot;font-size: 15px&quot;&gt;ID&lt;/font&gt;" style="text;html=1;strokeColor=none;fillColor=none;align=center;verticalAlign=middle;whiteSpace=wrap;rounded=0;fontSize=18;direction=east;flipH=0;flipV=1;" vertex="1" parent="1">
          <mxGeometry x="390" y="525" width="30" height="25" as="geometry" />
        </mxCell>
        <mxCell id="Ed6KvirajqqCD9u2Csdc-129" value="" style="ellipse;whiteSpace=wrap;html=1;aspect=fixed;fontSize=18;direction=east;flipH=0;flipV=1;fillColor=#000000;" vertex="1" parent="1">
          <mxGeometry x="505" y="495" width="30" height="30" as="geometry" />
        </mxCell>
        <mxCell id="Ed6KvirajqqCD9u2Csdc-130" value="&lt;font style=&quot;font-size: 15px&quot;&gt;ID&lt;/font&gt;" style="text;html=1;strokeColor=none;fillColor=none;align=center;verticalAlign=middle;whiteSpace=wrap;rounded=0;fontSize=18;direction=east;flipH=0;flipV=1;" vertex="1" parent="1">
          <mxGeometry x="505" y="520" width="30" height="30" as="geometry" />
        </mxCell>
        <mxCell id="Ed6KvirajqqCD9u2Csdc-132" value="" style="ellipse;whiteSpace=wrap;html=1;aspect=fixed;fontSize=18;direction=east;flipH=0;flipV=1;fillColor=#000000;" vertex="1" parent="1">
          <mxGeometry x="315" y="960" width="30" height="30" as="geometry" />
        </mxCell>
        <mxCell id="Ed6KvirajqqCD9u2Csdc-133" value="&lt;font style=&quot;font-size: 15px&quot;&gt;Codigo&lt;/font&gt;" style="text;html=1;strokeColor=none;fillColor=none;align=center;verticalAlign=middle;whiteSpace=wrap;rounded=0;fontSize=18;direction=east;flipH=0;flipV=1;" vertex="1" parent="1">
          <mxGeometry x="307.5" y="990" width="45" height="25" as="geometry" />
        </mxCell>
        <mxCell id="Ed6KvirajqqCD9u2Csdc-136" value="&lt;font color=&quot;#000000&quot;&gt;1...N&lt;/font&gt;" style="text;html=1;strokeColor=none;fillColor=none;align=center;verticalAlign=middle;whiteSpace=wrap;rounded=0;labelBackgroundColor=none;fontSize=15;fontColor=#FFFFFF;" vertex="1" parent="1">
          <mxGeometry x="450" y="200" width="25" height="30" as="geometry" />
        </mxCell>
        <mxCell id="Ed6KvirajqqCD9u2Csdc-137" value="&lt;font color=&quot;#000000&quot;&gt;1...N&lt;/font&gt;" style="text;html=1;strokeColor=none;fillColor=none;align=center;verticalAlign=middle;whiteSpace=wrap;rounded=0;labelBackgroundColor=none;fontSize=15;fontColor=#FFFFFF;" vertex="1" parent="1">
          <mxGeometry x="460" y="180" width="35" height="30" as="geometry" />
        </mxCell>
        <mxCell id="Ed6KvirajqqCD9u2Csdc-138" value="&lt;font color=&quot;#000000&quot;&gt;1...N&lt;/font&gt;" style="text;html=1;strokeColor=none;fillColor=none;align=center;verticalAlign=middle;whiteSpace=wrap;rounded=0;labelBackgroundColor=none;fontSize=15;fontColor=#FFFFFF;" vertex="1" parent="1">
          <mxGeometry x="527.5" y="160" width="32.5" height="30" as="geometry" />
        </mxCell>
        <mxCell id="Ed6KvirajqqCD9u2Csdc-139" value="&lt;font color=&quot;#000000&quot;&gt;0...1&lt;/font&gt;" style="text;html=1;strokeColor=none;fillColor=none;align=center;verticalAlign=middle;whiteSpace=wrap;rounded=0;labelBackgroundColor=none;fontSize=15;fontColor=#FFFFFF;" vertex="1" parent="1">
          <mxGeometry x="580" y="200" width="20" height="30" as="geometry" />
        </mxCell>
        <mxCell id="Ed6KvirajqqCD9u2Csdc-140" value="&lt;font color=&quot;#000000&quot;&gt;1...N&lt;/font&gt;" style="text;html=1;strokeColor=none;fillColor=none;align=center;verticalAlign=middle;whiteSpace=wrap;rounded=0;labelBackgroundColor=none;fontSize=15;fontColor=#FFFFFF;" vertex="1" parent="1">
          <mxGeometry x="750" y="480" width="20" height="30" as="geometry" />
        </mxCell>
        <mxCell id="Ed6KvirajqqCD9u2Csdc-141" value="&lt;font color=&quot;#000000&quot;&gt;1...N&lt;/font&gt;" style="text;html=1;strokeColor=none;fillColor=none;align=center;verticalAlign=middle;whiteSpace=wrap;rounded=0;labelBackgroundColor=none;fontSize=15;fontColor=#FFFFFF;" vertex="1" parent="1">
          <mxGeometry x="745" y="600" width="30" height="30" as="geometry" />
        </mxCell>
        <mxCell id="Ed6KvirajqqCD9u2Csdc-142" value="&lt;font color=&quot;#000000&quot;&gt;1...N&lt;/font&gt;" style="text;html=1;strokeColor=none;fillColor=none;align=center;verticalAlign=middle;whiteSpace=wrap;rounded=0;labelBackgroundColor=none;fontSize=15;fontColor=#FFFFFF;" vertex="1" parent="1">
          <mxGeometry x="470" y="660" width="20" height="30" as="geometry" />
        </mxCell>
        <mxCell id="Ed6KvirajqqCD9u2Csdc-143" value="&lt;font color=&quot;#000000&quot;&gt;1...N&lt;/font&gt;" style="text;html=1;strokeColor=none;fillColor=none;align=center;verticalAlign=middle;whiteSpace=wrap;rounded=0;labelBackgroundColor=none;fontSize=15;fontColor=#FFFFFF;" vertex="1" parent="1">
          <mxGeometry x="585" y="660" width="20" height="30" as="geometry" />
        </mxCell>
        <mxCell id="Ed6KvirajqqCD9u2Csdc-144" value="&lt;font color=&quot;#000000&quot;&gt;1...N&lt;/font&gt;" style="text;html=1;strokeColor=none;fillColor=none;align=center;verticalAlign=middle;whiteSpace=wrap;rounded=0;labelBackgroundColor=none;fontSize=15;fontColor=#FFFFFF;" vertex="1" parent="1">
          <mxGeometry x="265" y="640" width="30" height="30" as="geometry" />
        </mxCell>
        <mxCell id="Ed6KvirajqqCD9u2Csdc-145" value="&lt;font color=&quot;#000000&quot;&gt;1...1&lt;/font&gt;" style="text;html=1;strokeColor=none;fillColor=none;align=center;verticalAlign=middle;whiteSpace=wrap;rounded=0;labelBackgroundColor=none;fontSize=15;fontColor=#FFFFFF;" vertex="1" parent="1">
          <mxGeometry x="265" y="745" width="20" height="30" as="geometry" />
        </mxCell>
        <mxCell id="Ed6KvirajqqCD9u2Csdc-146" value="&lt;font color=&quot;#000000&quot;&gt;1...N&lt;/font&gt;" style="text;html=1;strokeColor=none;fillColor=none;align=center;verticalAlign=middle;whiteSpace=wrap;rounded=0;labelBackgroundColor=none;fontSize=15;fontColor=#FFFFFF;" vertex="1" parent="1">
          <mxGeometry x="750" y="980" width="30" height="30" as="geometry" />
        </mxCell>
        <mxCell id="Ed6KvirajqqCD9u2Csdc-147" value="&lt;font color=&quot;#000000&quot;&gt;1...N&lt;/font&gt;" style="text;html=1;strokeColor=none;fillColor=none;align=center;verticalAlign=middle;whiteSpace=wrap;rounded=0;labelBackgroundColor=none;fontSize=15;fontColor=#FFFFFF;" vertex="1" parent="1">
          <mxGeometry x="682.5" y="940" width="30" height="30" as="geometry" />
        </mxCell>
        <mxCell id="Ed6KvirajqqCD9u2Csdc-148" value="&lt;font color=&quot;#000000&quot;&gt;1...N&lt;/font&gt;" style="text;html=1;strokeColor=none;fillColor=none;align=center;verticalAlign=middle;whiteSpace=wrap;rounded=0;labelBackgroundColor=none;fontSize=15;fontColor=#FFFFFF;" vertex="1" parent="1">
          <mxGeometry x="465" y="840" width="30" height="30" as="geometry" />
        </mxCell>
        <mxCell id="Ed6KvirajqqCD9u2Csdc-149" value="&lt;font color=&quot;#000000&quot;&gt;1...1&lt;/font&gt;" style="text;html=1;strokeColor=none;fillColor=none;align=center;verticalAlign=middle;whiteSpace=wrap;rounded=0;labelBackgroundColor=none;fontSize=15;fontColor=#FFFFFF;" vertex="1" parent="1">
          <mxGeometry x="575" y="840" width="30" height="30" as="geometry" />
        </mxCell>
        <mxCell id="Ed6KvirajqqCD9u2Csdc-150" value="&lt;font color=&quot;#000000&quot;&gt;1...N&lt;/font&gt;" style="text;html=1;strokeColor=none;fillColor=none;align=center;verticalAlign=middle;whiteSpace=wrap;rounded=0;labelBackgroundColor=none;fontSize=15;fontColor=#FFFFFF;" vertex="1" parent="1">
          <mxGeometry x="360" y="740" width="30" height="30" as="geometry" />
        </mxCell>
        <mxCell id="Ed6KvirajqqCD9u2Csdc-151" value="&lt;font color=&quot;#000000&quot;&gt;1...1&lt;/font&gt;" style="text;html=1;strokeColor=none;fillColor=none;align=center;verticalAlign=middle;whiteSpace=wrap;rounded=0;labelBackgroundColor=none;fontSize=15;fontColor=#FFFFFF;" vertex="1" parent="1">
          <mxGeometry x="360" y="650" width="30" height="30" as="geometry" />
        </mxCell>
        <mxCell id="Ed6KvirajqqCD9u2Csdc-152" value="&lt;font color=&quot;#000000&quot;&gt;0...1&lt;/font&gt;" style="text;html=1;strokeColor=none;fillColor=none;align=center;verticalAlign=middle;whiteSpace=wrap;rounded=0;labelBackgroundColor=none;fontSize=15;fontColor=#FFFFFF;" vertex="1" parent="1">
          <mxGeometry x="105" y="470" width="30" height="30" as="geometry" />
        </mxCell>
        <mxCell id="Ed6KvirajqqCD9u2Csdc-153" value="&lt;font color=&quot;#000000&quot;&gt;1...N&lt;/font&gt;" style="text;html=1;strokeColor=none;fillColor=none;align=center;verticalAlign=middle;whiteSpace=wrap;rounded=0;labelBackgroundColor=none;fontSize=15;fontColor=#FFFFFF;" vertex="1" parent="1">
          <mxGeometry x="190" y="470" width="30" height="30" as="geometry" />
        </mxCell>
      </root>
    </mxGraphModel>
  </diagram>
</mxfile>
